<svg width="64px" height="64px" viewBox="0 0 16 16" xmlns:dc="http://purl.org/dc/elements/1.1/" xmlns:cc="http://creativecommons.org/ns#" xmlns:rdf="http://www.w3.org/1999/02/22-rdf-syntax-ns#" xmlns="http://www.w3.org/2000/svg" version="1.1" id="svg2" fill="#6570a4"><g id="SVGRepo_bgCarrier" stroke-width="0"></g><g id="SVGRepo_tracerCarrier" stroke-linecap="round" stroke-linejoin="round"></g><g id="SVGRepo_iconCarrier"> <metadata id="metadata7"> <rdf:rdf> <cc:work> <dc:format>image/svg+xml</dc:format> <dc:type rdf:resource="http://purl.org/dc/dcmitype/StillImage"></dc:type> <dc:title></dc:title> <dc:date>2021</dc:date> <dc:creator> <cc:agent> <dc:title>Timothée Giet</dc:title> </cc:agent> </dc:creator> <cc:license rdf:resource="http://creativecommons.org/licenses/by-sa/4.0/"></cc:license> </cc:work> <cc:license rdf:about="http://creativecommons.org/licenses/by-sa/4.0/"> <cc:permits rdf:resource="http://creativecommons.org/ns#6570a46570a4Reproduction"></cc:permits> <cc:permits rdf:resource="http://creativecommons.org/ns#6570a46570a4Distribution"></cc:permits> <cc:requires rdf:resource="http://creativecommons.org/ns#6570a46570a4Notice"></cc:requires> <cc:requires rdf:resource="http://creativecommons.org/ns#6570a46570a4Attribution"></cc:requires> <cc:permits rdf:resource="http://creativecommons.org/ns#6570a46570a4DerivativeWorks"></cc:permits> <cc:requires rdf:resource="http://creativecommons.org/ns#6570a46570a4ShareAlike"></cc:requires> </cc:license> </rdf:rdf> </metadata> <g transform="translate(0 -1036.362)" id="layer1"> <path id="path828" transform="translate(0 1036.362)" d="M8 1a7 7 0 0 0-7 7 7 7 0 0 0 7 7 7 7 0 0 0 7-7 7 7 0 0 0-7-7zm0 1a6 6 0 0 1 6 6 6 6 0 0 1-6 6 6 6 0 0 1-6-6 6 6 0 0 1 6-6z" style="opacity:1;vector-effect:none;fill:#6570a46570a4373737;fill-opacity:1;stroke:none;stroke-width:4;stroke-linecap:square;stroke-linejoin:round;stroke-miterlimit:4;stroke-dasharray:none;stroke-dashoffset:3.20000005;stroke-opacity:.55063291"></path> <circle r="3" cy="1044.3622" cx="8" id="path833" style="opacity:1;vector-effect:none;fill:#6570a4;fill-opacity:1;stroke:none;stroke-width:4;stroke-linecap:square;stroke-linejoin:round;stroke-miterlimit:4;stroke-dasharray:none;stroke-dashoffset:3.20000005;stroke-opacity:.55063291"></circle> </g> </g></svg>